<svg xmlns="http://www.w3.org/2000/svg" viewBox="0 0 720 350" width="720" height="350" role="img"><title>Picking takes two steps: from the window to the game, then from a point to a cell</title><defs><marker id="arrow-9aa3ab" viewBox="0 0 10 10" refX="8.5" refY="5" markerWidth="7" markerHeight="7" orient="auto-start-reverse"><path d="M0 0 L10 5 L0 10 z" fill="#9aa3ab"/></marker></defs><rect width="720" height="350" rx="10" fill="#22262b"/>
<rect x="30" y="70" width="250" height="190" fill="#000000" stroke="#565d65" stroke-width="1.5"/>
<rect x="30" y="94" width="250" height="141" fill="#2b3a2a"/>
<text x="30" y="52" font-family="'Segoe UI', system-ui, -apple-system, 'Helvetica Neue', Arial, sans-serif" font-size="15" fill="#dee2e6" text-anchor="start" font-weight="bold">1. the window</text>
<circle cx="200" cy="180" r="5" fill="#d45d35"/>
<text x="210" y="172" font-family="'Segoe UI', system-ui, -apple-system, 'Helvetica Neue', Arial, sans-serif" font-size="12.5" fill="#d45d35" text-anchor="start" font-weight="normal">the mouse</text>
<text x="30" y="282" font-family="'Segoe UI', system-ui, -apple-system, 'Helvetica Neue', Arial, sans-serif" font-size="13" fill="#9aa3ab" text-anchor="start" font-weight="normal">window pixels</text>
<line x1="292" y1="150" x2="330" y2="150" stroke="#9aa3ab" stroke-width="2" stroke-linecap="round" marker-end="url(#arrow-9aa3ab)"/>
<text x="311" y="136" font-family="'Segoe UI', system-ui, -apple-system, 'Helvetica Neue', Arial, sans-serif" font-size="12" fill="#9aa3ab" text-anchor="middle" font-weight="normal">invert</text>
<text x="311" y="172" font-family="'Segoe UI', system-ui, -apple-system, 'Helvetica Neue', Arial, sans-serif" font-size="12" fill="#9aa3ab" text-anchor="middle" font-weight="normal">the scale</text>
<text x="344" y="52" font-family="'Segoe UI', system-ui, -apple-system, 'Helvetica Neue', Arial, sans-serif" font-size="15" fill="#dee2e6" text-anchor="start" font-weight="bold">2. the game: 1280 × 720</text>
<rect x="344" y="70" width="346" height="195" fill="#2b3a2a"/>
<rect x="384" y="114" width="40" height="28" fill="#6aa84f"/>
<rect x="424" y="114" width="40" height="28" fill="#5d9945"/>
<rect x="464" y="114" width="40" height="28" fill="#6aa84f"/>
<rect x="504" y="114" width="40" height="28" fill="#5d9945"/>
<rect x="544" y="114" width="40" height="28" fill="#6aa84f"/>
<rect x="584" y="114" width="40" height="28" fill="#5d9945"/>
<rect x="624" y="114" width="40" height="28" fill="#6aa84f"/>
<rect x="384" y="142" width="40" height="28" fill="#5d9945"/>
<rect x="424" y="142" width="40" height="28" fill="#6aa84f"/>
<rect x="464" y="142" width="40" height="28" fill="#5d9945"/>
<rect x="504" y="142" width="40" height="28" fill="#6aa84f"/>
<rect x="544" y="142" width="40" height="28" fill="#5d9945"/>
<rect x="584" y="142" width="40" height="28" fill="#6aa84f"/>
<rect x="624" y="142" width="40" height="28" fill="#5d9945"/>
<rect x="384" y="170" width="40" height="28" fill="#6aa84f"/>
<rect x="424" y="170" width="40" height="28" fill="#5d9945"/>
<rect x="464" y="170" width="40" height="28" fill="#6aa84f"/>
<rect x="504" y="170" width="40" height="28" fill="#5d9945"/>
<rect x="544" y="170" width="40" height="28" fill="#6aa84f"/>
<rect x="584" y="170" width="40" height="28" fill="#5d9945"/>
<rect x="624" y="170" width="40" height="28" fill="#6aa84f"/>
<rect x="384" y="198" width="40" height="28" fill="#5d9945"/>
<rect x="424" y="198" width="40" height="28" fill="#6aa84f"/>
<rect x="464" y="198" width="40" height="28" fill="#5d9945"/>
<rect x="504" y="198" width="40" height="28" fill="#6aa84f"/>
<rect x="544" y="198" width="40" height="28" fill="#5d9945"/>
<rect x="584" y="198" width="40" height="28" fill="#6aa84f"/>
<rect x="624" y="198" width="40" height="28" fill="#5d9945"/>
<rect x="384" y="226" width="40" height="28" fill="#6aa84f"/>
<rect x="424" y="226" width="40" height="28" fill="#5d9945"/>
<rect x="464" y="226" width="40" height="28" fill="#6aa84f"/>
<rect x="504" y="226" width="40" height="28" fill="#5d9945"/>
<rect x="544" y="226" width="40" height="28" fill="#6aa84f"/>
<rect x="584" y="226" width="40" height="28" fill="#5d9945"/>
<rect x="624" y="226" width="40" height="28" fill="#6aa84f"/>
<rect x="544" y="170" width="40" height="28" fill="none" stroke="#d45d35" stroke-width="2.5"/>
<circle cx="570" cy="182" r="5" fill="#d45d35"/>
<rect x="388" y="78" width="28" height="28" fill="#2e3338" rx="3" stroke="#565d65" stroke-width="1"/>
<rect x="422" y="78" width="28" height="28" fill="#2e3338" rx="3" stroke="#565d65" stroke-width="1"/>
<rect x="456" y="78" width="28" height="28" fill="#2e3338" rx="3" stroke="#565d65" stroke-width="1"/>
<rect x="490" y="78" width="28" height="28" fill="#2e3338" rx="3" stroke="#565d65" stroke-width="1"/>
<text x="540" y="97" font-family="'Segoe UI', system-ui, -apple-system, 'Helvetica Neue', Arial, sans-serif" font-size="12" fill="#9aa3ab" text-anchor="start" font-weight="normal">cards</text>
<text x="344" y="287" font-family="Consolas, 'Cascadia Mono', Menlo, monospace" font-size="13" fill="#dee2e6" text-anchor="start" font-weight="normal">cell = (position − field corner) / cell size</text>
<text x="344" y="309" font-family="'Segoe UI', system-ui, -apple-system, 'Helvetica Neue', Arial, sans-serif" font-size="13" fill="#9aa3ab" text-anchor="start" font-weight="normal">a division, however many cells there are</text>
<text x="30" y="328" font-family="'Segoe UI', system-ui, -apple-system, 'Helvetica Neue', Arial, sans-serif" font-size="13" fill="#9aa3ab" text-anchor="start" font-weight="normal">Things that are not on a grid (a coin, the cards) are checked one by one, and the order decides what a click hits.</text>
</svg>
