<svg xmlns="http://www.w3.org/2000/svg" viewBox="0 0 720 420" width="720" height="420" role="img"><title>The arcade rule takes the turn that looks closest; the shortest path takes the turn that is</title><defs><marker id="arrow-9aa3ab" viewBox="0 0 10 10" refX="8.5" refY="5" markerWidth="7" markerHeight="7" orient="auto-start-reverse"><path d="M0 0 L10 5 L0 10 z" fill="#9aa3ab"/></marker><marker id="arrow-2aa6a6" viewBox="0 0 10 10" refX="8.5" refY="5" markerWidth="7" markerHeight="7" orient="auto-start-reverse"><path d="M0 0 L10 5 L0 10 z" fill="#2aa6a6"/></marker></defs><rect width="720" height="420" rx="10" fill="#22262b"/>
<rect x="31" y="41" width="34" height="34" fill="none" rx="3" stroke="#2f6f8f" stroke-width="1.5"/>
<rect x="67" y="41" width="34" height="34" fill="none" rx="3" stroke="#2f6f8f" stroke-width="1.5"/>
<rect x="103" y="41" width="34" height="34" fill="none" rx="3" stroke="#2f6f8f" stroke-width="1.5"/>
<rect x="139" y="41" width="34" height="34" fill="none" rx="3" stroke="#2f6f8f" stroke-width="1.5"/>
<rect x="175" y="41" width="34" height="34" fill="none" rx="3" stroke="#2f6f8f" stroke-width="1.5"/>
<rect x="211" y="41" width="34" height="34" fill="none" rx="3" stroke="#2f6f8f" stroke-width="1.5"/>
<rect x="247" y="41" width="34" height="34" fill="none" rx="3" stroke="#2f6f8f" stroke-width="1.5"/>
<rect x="283" y="41" width="34" height="34" fill="none" rx="3" stroke="#2f6f8f" stroke-width="1.5"/>
<rect x="319" y="41" width="34" height="34" fill="none" rx="3" stroke="#2f6f8f" stroke-width="1.5"/>
<rect x="355" y="41" width="34" height="34" fill="none" rx="3" stroke="#2f6f8f" stroke-width="1.5"/>
<rect x="391" y="41" width="34" height="34" fill="none" rx="3" stroke="#2f6f8f" stroke-width="1.5"/>
<rect x="427" y="41" width="34" height="34" fill="none" rx="3" stroke="#2f6f8f" stroke-width="1.5"/>
<rect x="463" y="41" width="34" height="34" fill="none" rx="3" stroke="#2f6f8f" stroke-width="1.5"/>
<rect x="31" y="77" width="34" height="34" fill="none" rx="3" stroke="#2f6f8f" stroke-width="1.5"/>
<circle cx="84" cy="94" r="1.6" fill="#565d65"/>
<circle cx="120" cy="94" r="1.6" fill="#565d65"/>
<circle cx="156" cy="94" r="1.6" fill="#565d65"/>
<circle cx="192" cy="94" r="1.6" fill="#565d65"/>
<circle cx="228" cy="94" r="1.6" fill="#565d65"/>
<circle cx="264" cy="94" r="1.6" fill="#565d65"/>
<circle cx="300" cy="94" r="1.6" fill="#565d65"/>
<circle cx="336" cy="94" r="1.6" fill="#565d65"/>
<circle cx="372" cy="94" r="1.6" fill="#565d65"/>
<circle cx="408" cy="94" r="1.6" fill="#565d65"/>
<circle cx="444" cy="94" r="1.6" fill="#565d65"/>
<rect x="463" y="77" width="34" height="34" fill="none" rx="3" stroke="#2f6f8f" stroke-width="1.5"/>
<rect x="31" y="113" width="34" height="34" fill="none" rx="3" stroke="#2f6f8f" stroke-width="1.5"/>
<circle cx="84" cy="130" r="1.6" fill="#565d65"/>
<rect x="103" y="113" width="34" height="34" fill="none" rx="3" stroke="#2f6f8f" stroke-width="1.5"/>
<rect x="139" y="113" width="34" height="34" fill="none" rx="3" stroke="#2f6f8f" stroke-width="1.5"/>
<rect x="175" y="113" width="34" height="34" fill="none" rx="3" stroke="#2f6f8f" stroke-width="1.5"/>
<circle cx="228" cy="130" r="1.6" fill="#565d65"/>
<rect x="247" y="113" width="34" height="34" fill="none" rx="3" stroke="#2f6f8f" stroke-width="1.5"/>
<circle cx="300" cy="130" r="1.6" fill="#565d65"/>
<rect x="319" y="113" width="34" height="34" fill="none" rx="3" stroke="#2f6f8f" stroke-width="1.5"/>
<rect x="355" y="113" width="34" height="34" fill="none" rx="3" stroke="#2f6f8f" stroke-width="1.5"/>
<rect x="391" y="113" width="34" height="34" fill="none" rx="3" stroke="#2f6f8f" stroke-width="1.5"/>
<circle cx="444" cy="130" r="1.6" fill="#565d65"/>
<rect x="463" y="113" width="34" height="34" fill="none" rx="3" stroke="#2f6f8f" stroke-width="1.5"/>
<rect x="31" y="149" width="34" height="34" fill="none" rx="3" stroke="#2f6f8f" stroke-width="1.5"/>
<circle cx="84" cy="166" r="1.6" fill="#565d65"/>
<circle cx="120" cy="166" r="1.6" fill="#565d65"/>
<circle cx="156" cy="166" r="1.6" fill="#565d65"/>
<circle cx="192" cy="166" r="1.6" fill="#565d65"/>
<circle cx="228" cy="166" r="1.6" fill="#565d65"/>
<circle cx="264" cy="166" r="1.6" fill="#565d65"/>
<circle cx="300" cy="166" r="1.6" fill="#565d65"/>
<circle cx="336" cy="166" r="1.6" fill="#565d65"/>
<circle cx="372" cy="166" r="1.6" fill="#565d65"/>
<circle cx="408" cy="166" r="1.6" fill="#565d65"/>
<circle cx="444" cy="166" r="1.6" fill="#565d65"/>
<rect x="463" y="149" width="34" height="34" fill="none" rx="3" stroke="#2f6f8f" stroke-width="1.5"/>
<rect x="31" y="185" width="34" height="34" fill="none" rx="3" stroke="#2f6f8f" stroke-width="1.5"/>
<rect x="67" y="185" width="34" height="34" fill="none" rx="3" stroke="#2f6f8f" stroke-width="1.5"/>
<rect x="103" y="185" width="34" height="34" fill="none" rx="3" stroke="#2f6f8f" stroke-width="1.5"/>
<rect x="139" y="185" width="34" height="34" fill="none" rx="3" stroke="#2f6f8f" stroke-width="1.5"/>
<rect x="175" y="185" width="34" height="34" fill="none" rx="3" stroke="#2f6f8f" stroke-width="1.5"/>
<rect x="211" y="185" width="34" height="34" fill="none" rx="3" stroke="#2f6f8f" stroke-width="1.5"/>
<rect x="247" y="185" width="34" height="34" fill="none" rx="3" stroke="#2f6f8f" stroke-width="1.5"/>
<rect x="283" y="185" width="34" height="34" fill="none" rx="3" stroke="#2f6f8f" stroke-width="1.5"/>
<rect x="319" y="185" width="34" height="34" fill="none" rx="3" stroke="#2f6f8f" stroke-width="1.5"/>
<rect x="355" y="185" width="34" height="34" fill="none" rx="3" stroke="#2f6f8f" stroke-width="1.5"/>
<rect x="391" y="185" width="34" height="34" fill="none" rx="3" stroke="#2f6f8f" stroke-width="1.5"/>
<rect x="427" y="185" width="34" height="34" fill="none" rx="3" stroke="#2f6f8f" stroke-width="1.5"/>
<rect x="463" y="185" width="34" height="34" fill="none" rx="3" stroke="#2f6f8f" stroke-width="1.5"/>
<rect x="142" y="80" width="28" height="28" fill="none" rx="4" stroke="#d45d35" stroke-width="2" stroke-dasharray="4 3"/>
<text x="156" y="99" font-family="'Segoe UI', system-ui, -apple-system, 'Helvetica Neue', Arial, sans-serif" font-size="13" fill="#d45d35" text-anchor="middle" font-weight="bold">T</text>
<path d="M192 166 L84 166 L84 94 L156 94" stroke="#9aa3ab" stroke-width="3" fill="none" stroke-linecap="round" stroke-linejoin="round" marker-end="url(#arrow-9aa3ab)"/>
<path d="M181 177 L181 166 A11 11 0 0 1 203 166 L203 177 L197.5 172.05 L192 177 L186.5 172.05 Z" stroke="#e5484d" stroke-width="0" fill="#e5484d" stroke-linecap="round" stroke-linejoin="round"/>
<circle cx="188.15" cy="164.9" r="2.42" fill="#ffffff"/>
<circle cx="195.85" cy="164.9" r="2.42" fill="#ffffff"/>
<text x="518" y="110" font-family="Consolas, 'Cascadia Mono', Menlo, monospace" font-size="15" fill="#dee2e6" text-anchor="start" font-weight="bold">NearestTile</text>
<text x="518" y="136" font-family="'Segoe UI', system-ui, -apple-system, 'Helvetica Neue', Arial, sans-serif" font-size="13.5" fill="#9aa3ab" text-anchor="start" font-weight="normal">left looks closer in a</text>
<text x="518" y="153.55" font-family="'Segoe UI', system-ui, -apple-system, 'Helvetica Neue', Arial, sans-serif" font-size="13.5" fill="#9aa3ab" text-anchor="start" font-weight="normal">straight line: 7 steps</text>
<rect x="31" y="237" width="34" height="34" fill="none" rx="3" stroke="#2f6f8f" stroke-width="1.5"/>
<rect x="67" y="237" width="34" height="34" fill="none" rx="3" stroke="#2f6f8f" stroke-width="1.5"/>
<rect x="103" y="237" width="34" height="34" fill="none" rx="3" stroke="#2f6f8f" stroke-width="1.5"/>
<rect x="139" y="237" width="34" height="34" fill="none" rx="3" stroke="#2f6f8f" stroke-width="1.5"/>
<rect x="175" y="237" width="34" height="34" fill="none" rx="3" stroke="#2f6f8f" stroke-width="1.5"/>
<rect x="211" y="237" width="34" height="34" fill="none" rx="3" stroke="#2f6f8f" stroke-width="1.5"/>
<rect x="247" y="237" width="34" height="34" fill="none" rx="3" stroke="#2f6f8f" stroke-width="1.5"/>
<rect x="283" y="237" width="34" height="34" fill="none" rx="3" stroke="#2f6f8f" stroke-width="1.5"/>
<rect x="319" y="237" width="34" height="34" fill="none" rx="3" stroke="#2f6f8f" stroke-width="1.5"/>
<rect x="355" y="237" width="34" height="34" fill="none" rx="3" stroke="#2f6f8f" stroke-width="1.5"/>
<rect x="391" y="237" width="34" height="34" fill="none" rx="3" stroke="#2f6f8f" stroke-width="1.5"/>
<rect x="427" y="237" width="34" height="34" fill="none" rx="3" stroke="#2f6f8f" stroke-width="1.5"/>
<rect x="463" y="237" width="34" height="34" fill="none" rx="3" stroke="#2f6f8f" stroke-width="1.5"/>
<rect x="31" y="273" width="34" height="34" fill="none" rx="3" stroke="#2f6f8f" stroke-width="1.5"/>
<circle cx="84" cy="290" r="1.6" fill="#565d65"/>
<circle cx="120" cy="290" r="1.6" fill="#565d65"/>
<circle cx="156" cy="290" r="1.6" fill="#565d65"/>
<circle cx="192" cy="290" r="1.6" fill="#565d65"/>
<circle cx="228" cy="290" r="1.6" fill="#565d65"/>
<circle cx="264" cy="290" r="1.6" fill="#565d65"/>
<circle cx="300" cy="290" r="1.6" fill="#565d65"/>
<circle cx="336" cy="290" r="1.6" fill="#565d65"/>
<circle cx="372" cy="290" r="1.6" fill="#565d65"/>
<circle cx="408" cy="290" r="1.6" fill="#565d65"/>
<circle cx="444" cy="290" r="1.6" fill="#565d65"/>
<rect x="463" y="273" width="34" height="34" fill="none" rx="3" stroke="#2f6f8f" stroke-width="1.5"/>
<rect x="31" y="309" width="34" height="34" fill="none" rx="3" stroke="#2f6f8f" stroke-width="1.5"/>
<circle cx="84" cy="326" r="1.6" fill="#565d65"/>
<rect x="103" y="309" width="34" height="34" fill="none" rx="3" stroke="#2f6f8f" stroke-width="1.5"/>
<rect x="139" y="309" width="34" height="34" fill="none" rx="3" stroke="#2f6f8f" stroke-width="1.5"/>
<rect x="175" y="309" width="34" height="34" fill="none" rx="3" stroke="#2f6f8f" stroke-width="1.5"/>
<circle cx="228" cy="326" r="1.6" fill="#565d65"/>
<rect x="247" y="309" width="34" height="34" fill="none" rx="3" stroke="#2f6f8f" stroke-width="1.5"/>
<circle cx="300" cy="326" r="1.6" fill="#565d65"/>
<rect x="319" y="309" width="34" height="34" fill="none" rx="3" stroke="#2f6f8f" stroke-width="1.5"/>
<rect x="355" y="309" width="34" height="34" fill="none" rx="3" stroke="#2f6f8f" stroke-width="1.5"/>
<rect x="391" y="309" width="34" height="34" fill="none" rx="3" stroke="#2f6f8f" stroke-width="1.5"/>
<circle cx="444" cy="326" r="1.6" fill="#565d65"/>
<rect x="463" y="309" width="34" height="34" fill="none" rx="3" stroke="#2f6f8f" stroke-width="1.5"/>
<rect x="31" y="345" width="34" height="34" fill="none" rx="3" stroke="#2f6f8f" stroke-width="1.5"/>
<circle cx="84" cy="362" r="1.6" fill="#565d65"/>
<circle cx="120" cy="362" r="1.6" fill="#565d65"/>
<circle cx="156" cy="362" r="1.6" fill="#565d65"/>
<circle cx="192" cy="362" r="1.6" fill="#565d65"/>
<circle cx="228" cy="362" r="1.6" fill="#565d65"/>
<circle cx="264" cy="362" r="1.6" fill="#565d65"/>
<circle cx="300" cy="362" r="1.6" fill="#565d65"/>
<circle cx="336" cy="362" r="1.6" fill="#565d65"/>
<circle cx="372" cy="362" r="1.6" fill="#565d65"/>
<circle cx="408" cy="362" r="1.6" fill="#565d65"/>
<circle cx="444" cy="362" r="1.6" fill="#565d65"/>
<rect x="463" y="345" width="34" height="34" fill="none" rx="3" stroke="#2f6f8f" stroke-width="1.5"/>
<rect x="31" y="381" width="34" height="34" fill="none" rx="3" stroke="#2f6f8f" stroke-width="1.5"/>
<rect x="67" y="381" width="34" height="34" fill="none" rx="3" stroke="#2f6f8f" stroke-width="1.5"/>
<rect x="103" y="381" width="34" height="34" fill="none" rx="3" stroke="#2f6f8f" stroke-width="1.5"/>
<rect x="139" y="381" width="34" height="34" fill="none" rx="3" stroke="#2f6f8f" stroke-width="1.5"/>
<rect x="175" y="381" width="34" height="34" fill="none" rx="3" stroke="#2f6f8f" stroke-width="1.5"/>
<rect x="211" y="381" width="34" height="34" fill="none" rx="3" stroke="#2f6f8f" stroke-width="1.5"/>
<rect x="247" y="381" width="34" height="34" fill="none" rx="3" stroke="#2f6f8f" stroke-width="1.5"/>
<rect x="283" y="381" width="34" height="34" fill="none" rx="3" stroke="#2f6f8f" stroke-width="1.5"/>
<rect x="319" y="381" width="34" height="34" fill="none" rx="3" stroke="#2f6f8f" stroke-width="1.5"/>
<rect x="355" y="381" width="34" height="34" fill="none" rx="3" stroke="#2f6f8f" stroke-width="1.5"/>
<rect x="391" y="381" width="34" height="34" fill="none" rx="3" stroke="#2f6f8f" stroke-width="1.5"/>
<rect x="427" y="381" width="34" height="34" fill="none" rx="3" stroke="#2f6f8f" stroke-width="1.5"/>
<rect x="463" y="381" width="34" height="34" fill="none" rx="3" stroke="#2f6f8f" stroke-width="1.5"/>
<rect x="142" y="276" width="28" height="28" fill="none" rx="4" stroke="#d45d35" stroke-width="2" stroke-dasharray="4 3"/>
<text x="156" y="295" font-family="'Segoe UI', system-ui, -apple-system, 'Helvetica Neue', Arial, sans-serif" font-size="13" fill="#d45d35" text-anchor="middle" font-weight="bold">T</text>
<path d="M192 362 L228 362 L228 290 L156 290" stroke="#2aa6a6" stroke-width="3" fill="none" stroke-linecap="round" stroke-linejoin="round" marker-end="url(#arrow-2aa6a6)"/>
<path d="M181 373 L181 362 A11 11 0 0 1 203 362 L203 373 L197.5 368.05 L192 373 L186.5 368.05 Z" stroke="#e5484d" stroke-width="0" fill="#e5484d" stroke-linecap="round" stroke-linejoin="round"/>
<circle cx="188.15" cy="360.9" r="2.42" fill="#ffffff"/>
<circle cx="195.85" cy="360.9" r="2.42" fill="#ffffff"/>
<text x="518" y="306" font-family="Consolas, 'Cascadia Mono', Menlo, monospace" font-size="15" fill="#dee2e6" text-anchor="start" font-weight="bold">ShortestPath</text>
<text x="518" y="332" font-family="'Segoe UI', system-ui, -apple-system, 'Helvetica Neue', Arial, sans-serif" font-size="13.5" fill="#2aa6a6" text-anchor="start" font-weight="normal">the search knows the</text>
<text x="518" y="349.55" font-family="'Segoe UI', system-ui, -apple-system, 'Helvetica Neue', Arial, sans-serif" font-size="13.5" fill="#2aa6a6" text-anchor="start" font-weight="normal">walls: 5 steps</text>
<text x="30" y="26" font-family="'Segoe UI', system-ui, -apple-system, 'Helvetica Neue', Arial, sans-serif" font-size="13.5" fill="#9aa3ab" text-anchor="start" font-weight="normal">the ghost G wants to reach T, two rows up</text>
</svg>
